<svg xmlns="http://www.w3.org/2000/svg" xmlns:xlink="http://www.w3.org/1999/xlink" width="760" height="230" viewBox="0 0 760 230"><defs><linearGradient id="pfade" x1="0" y1="0" x2="0" y2="1"><stop offset="0" stop-color="#00D4FF" stop-opacity="0.35"/><stop offset="1" stop-color="#00D4FF" stop-opacity="0"/></linearGradient><filter id="wglow" x="-40%" y="-40%" width="180%" height="180%"><feGaussianBlur stdDeviation="3.5" result="b"/><feMerge><feMergeNode in="b"/><feMergeNode in="SourceGraphic"/></feMerge></filter></defs><rect width="760" height="230" rx="10" fill="#05070d"/><rect x="1" y="1" width="758" height="228" rx="9" fill="none" stroke="#00D4FF" stroke-opacity="0.25"/><text x="28" y="30" font-family="'JetBrains Mono',Consolas,monospace" font-size="13" letter-spacing="2" fill="#00D4FF">♥ COMMIT PULSE // LAST 14 DAYS</text><text x="732" y="30" text-anchor="end" font-family="'JetBrains Mono',Consolas,monospace" font-size="12" fill="#ffd479">PEAK ▸ 134 pushes · 09-20</text><line x1="44" y1="178" x2="730" y2="178" stroke="#16283a"/><line x1="44" y1="106" x2="730" y2="106" stroke="#16283a"/><line x1="44" y1="34" x2="730" y2="34" stroke="#16283a"/><path d="M 44.0 178.0 L 96.8 178.0 L 149.5 178.0 L 202.3 178.0 L 255.1 178.0 L 307.8 178.0 L 360.6 178.0 L 413.4 178.0 L 466.2 178.0 L 518.9 178.0 L 571.7 34.0 L 624.5 178.0 L 677.2 178.0 L 730.0 178.0 L 730.0 178 L 44.0 178 Z" fill="url(#pfade)"/><path id="wave" d="M 44.0 178.0 L 96.8 178.0 L 149.5 178.0 L 202.3 178.0 L 255.1 178.0 L 307.8 178.0 L 360.6 178.0 L 413.4 178.0 L 466.2 178.0 L 518.9 178.0 L 571.7 34.0 L 624.5 178.0 L 677.2 178.0 L 730.0 178.0" fill="none" stroke="#00D4FF" stroke-width="2.5" filter="url(#wglow)" pathLength="100" stroke-dasharray="100" stroke-dashoffset="100"><animate attributeName="stroke-dashoffset" from="100" to="0" dur="2.2s" fill="freeze"/></path><circle r="5" fill="#00D4FF" filter="url(#wglow)" opacity="0"><animate attributeName="opacity" values="0;1" begin="2.2s" dur="0.3s" fill="freeze"/><animateMotion dur="7s" begin="2.2s" repeatCount="indefinite"><mpath xlink:href="#wave"/></animateMotion></circle><text x="44" y="200" text-anchor="middle" font-family="'JetBrains Mono',Consolas,monospace" font-size="10" fill="#3a4552">09-10</text><text x="150" y="200" text-anchor="middle" font-family="'JetBrains Mono',Consolas,monospace" font-size="10" fill="#3a4552">09-12</text><text x="255" y="200" text-anchor="middle" font-family="'JetBrains Mono',Consolas,monospace" font-size="10" fill="#3a4552">09-14</text><text x="361" y="200" text-anchor="middle" font-family="'JetBrains Mono',Consolas,monospace" font-size="10" fill="#3a4552">09-16</text><text x="466" y="200" text-anchor="middle" font-family="'JetBrains Mono',Consolas,monospace" font-size="10" fill="#3a4552">09-18</text><text x="572" y="200" text-anchor="middle" font-family="'JetBrains Mono',Consolas,monospace" font-size="10" fill="#3a4552">09-20</text><circle cx="572" cy="34" r="4" fill="#ffd479" filter="url(#wglow)"/><text x="677" y="200" text-anchor="middle" font-family="'JetBrains Mono',Consolas,monospace" font-size="10" fill="#3a4552">09-22</text><text x="732" y="218" text-anchor="end" font-family="'JetBrains Mono',Consolas,monospace" font-size="10" letter-spacing="1.5" fill="#3a4552">SOURCE: COMMITS API · 2026-09-23 UTC</text></svg>
